#!OML:ASF H:\LiuWeirdWalks\Patient Classification 1\Patient 1\Session 1\male.ASF
:FULLY-SPECIFIED
:DEGREES
1097
root 1.98715 17.8481 19.2412 2.64387 5.89316 -4.34149
lowerback 11.5975 -0.148254 7.04734
upperback 2.56336 0.968567 6.80738
thorax -3.82273 0.440485 3.04346
lowerneck -24.9022 -0.120352 5.5322
upperneck 26.1299 1.36759 -11.9613
head 13.0416 -0.510565 -5.41139
rclavicle -1.11319e-014 1.43125e-014
rhumerus -35.1911 -30.768 -14.6399
rradius 33.2581
rwrist -5.84949
rhand -20.0695 -4.97774
rfingers 7.12502
rthumb 6.27276 -34.8649
lclavicle -1.11319e-014 1.43125e-014
lhumerus -30.4318 31.4044 22.9668
lradius 44.4682
lwrist 2.12048
lhand -18.8632 0.792711
lfingers 7.12502
lthumb 7.43724 30.642
rfemur -0.973799 4.4388 24.4192
rtibia 26.137
rfoot -16.3087 -22.7615
rtoes -4.91881
lfemur -28.918 1.61908 -11.7188
ltibia 33.1872
lfoot -3.01184 0.712916
ltoes -11.1302
1098
root 1.99585 17.8298 19.345 2.71985 5.7715 -4.57805
lowerback 11.5294 -0.18959 6.75151
upperback 2.56448 0.860061 6.60725
thorax -3.78489 0.38917 3.01066
lowerneck -24.8383 0.0476831 5.82078
upperneck 26.0788 1.39852 -11.6703
head 13.0066 -0.425564 -5.33309
rclavicle 3.97569e-015 -1.11319e-014
rhumerus -35.1399 -30.7645 -14.5611
rradius 33.2552
rwrist -5.84231
rhand -20.059 -4.97649
rfingers 7.12502
rthumb 6.28281 -34.8633
lclavicle 3.97569e-015 -1.11319e-014
lhumerus -30.7035 31.6005 22.7074
lradius 44.3976
lwrist 2.07646
lhand -18.8373 0.757185
lfingers 7.12502
lthumb 7.46215 30.6056
rfemur -0.721498 4.1767 24.6037
rtibia 26.1281
rfoot -16.4872 -22.3852
rtoes -5.44187
lfemur -28.793 1.69348 -11.4951
ltibia 33.546
lfoot -3.323 0.816847
ltoes -10.0896
1099
root 2.00615 17.8138 19.4491 2.79989 5.6593 -4.78365
lowerback 11.4722 -0.235934 6.43508
upperback 2.55726 0.744522 6.39336
thorax -3.76161 0.334135 2.97628
lowerneck -24.7982 0.213234 6.10346
upperneck 26.059 1.42647 -11.3666
head 12.9891 -0.341507 -5.25205
rclavicle -1.43125e-014 -1.43125e-014
rhumerus -35.0909 -30.7505 -14.4927
rradius 33.2789
rwrist -5.87664
rhand -20.0668 -5.02392
rfingers 7.12502
rthumb 6.27533 -34.911
lclavicle -1.43125e-014 -1.43125e-014
lhumerus -30.9917 31.7751 22.4479
lradius 44.3464
lwrist 2.06362
lhand -18.8347 0.725469
lfingers 7.12502
lthumb 7.46471 30.5738
rfemur -0.48132 3.89517 24.7515
rtibia 26.1442
rfoot -16.6246 -22.0369
rtoes -5.9888
lfemur -28.6693 1.74699 -11.318
ltibia 33.8769
lfoot -3.54932 1.13028
ltoes -9.13865
1100
root 2.01703 17.8003 19.553 2.88987 5.55773 -4.93758
lowerback 11.4077 -0.27846 6.07116
upperback 2.54868 0.62777 6.16641
thorax -3.73585 0.278886 2.95509
lowerneck -24.7562 0.371658 6.38091
upperneck 26.014 1.44663 -11.0687
head 12.9606 -0.262272 -5.1725
rclavicle 1.19271e-015 4.6118e-014
rhumerus -35.0637 -30.7642 -14.398
rradius 33.3073
rwrist -5.88818
rhand -20.0672 -5.05098
rfingers 7.12502
rthumb 6.2749 -34.938
lclavicle 1.19271e-015 4.6118e-014
lhumerus -31.2692 31.9314 22.2172
lradius 44.3201
lwrist 2.04773
lhand -18.8245 0.704927
lfingers 7.12502
lthumb 7.47452 30.5529
rfemur -0.278361 3.59676 24.8501
rtibia 26.2191
rfoot -16.738 -21.7396
rtoes -6.53008
lfemur -28.5678 1.79311 -11.2088
ltibia 34.2185
lfoot -3.74607 1.54962
ltoes -8.43365
1101
root 2.02721 17.7894 19.6557 2.98401 5.46777 -5.03052
lowerback 11.3725 -0.295649 5.65411
upperback 2.52181 0.543121 5.93043
thorax -3.74578 0.239344 2.95038
lowerneck -24.729 0.479843 6.56816
upperneck 25.9906 1.41905 -10.7282
head 12.9381 -0.207953 -5.0702
rclavicle -1.98785e-015 0
rhumerus -35.1364 -30.7255 -14.2306
rradius 33.3848
rwrist -5.96097
rhand -20.0928 -5.1196
rfingers 7.12502
rthumb 6.25019 -35.0074
lclavicle -1.98785e-015 0
lhumerus -31.5212 31.8962 22.1315
lradius 44.4334
lwrist 2.2543
lhand -18.9122 0.8977
lfingers 7.12502
lthumb 7.38991 30.7486
rfemur -0.130298 3.28777 24.9026
rtibia 26.3915
rfoot -16.818 -21.5262
rtoes -7.07276
lfemur -28.4951 1.80801 -11.1623
ltibia 34.5991
lfoot -3.97579 2.01902
ltoes -8.1329
1102
root 2.03588 17.7809 19.7567 3.08621 5.39224 -5.06887
lowerback 11.3512 -0.29017 5.18677
upperback 2.49053 0.484122 5.68513
thorax -3.76822 0.212876 2.9611
lowerneck -24.7224 0.546865 6.68842
upperneck 25.9783 1.34978 -10.3574
head 12.9195 -0.175127 -4.95261
rclavicle -2.0276e-014 -7.4743e-014
rhumerus -35.2955 -30.6625 -14.0064
rradius 33.495
rwrist -6.05235
rhand -20.1371 -5.18934
rfingers 7.12502
rthumb 6.20749 -35.0784
lclavicle -2.0276e-014 -7.4743e-014
lhumerus -31.6768 31.8582 22.1392
lradius 44.501
lwrist 2.40359
lhand -19.0021 1.07917
lfingers 7.12502
lthumb 7.3031 30.9331
rfemur -0.0689587 2.96462 24.9207
rtibia 26.7066
rfoot -16.8605 -21.4077
rtoes -7.6284
lfemur -28.4565 1.78111 -11.16
ltibia 35.0227
lfoot -4.26972 2.48928
ltoes -8.19357
1103
root 2.04254 17.7747 19.8548 3.19121 5.35355 -5.06726
lowerback 11.3682 -0.273655 4.67805
upperback 2.4479 0.43901 5.4363
thorax -3.82382 0.1935 2.99058
lowerneck -24.7266 0.576164 6.74827
upperneck 25.9669 1.24027 -9.95468
head 12.899 -0.161998 -4.81937
rclavicle -1.59028e-015 -4.29375e-014
rhumerus -35.5235 -30.5366 -13.7575
rradius 33.6423
rwrist -6.21414
rhand -20.2222 -5.2998
rfingers 7.12502
rthumb 6.12532 -35.1913
lclavicle -1.59028e-015 -4.29375e-014
lhumerus -31.7573 31.7745 22.2426
lradius 44.5594
lwrist 2.54423
lhand -19.1052 1.27905
lfingers 7.12502
lthumb 7.20365 31.1364
rfemur -0.10555 2.61377 24.9245
rtibia 27.1871
rfoot -16.8668 -21.3884
rtoes -8.19435
lfemur -28.4472 1.69079 -11.1772
ltibia 35.4721
lfoot -4.61415 2.9105
ltoes -8.50806
1104
root 2.04749 17.7705 19.9505 3.2961 5.36425 -5.04986
lowerback 11.3939 -0.29019 4.12359
upperback 2.40558 0.344613 5.18339
thorax -3.88255 0.150522 3.04959
lowerneck -24.7022 0.629385 6.8711
upperneck 25.934 1.14803 -9.57757
head 12.8673 -0.13784 -4.70303
rclavicle -1.25234e-014 -2.78299e-014
rhumerus -35.6896 -30.3908 -13.6014
rradius 33.7654
rwrist -6.3379
rhand -20.3191 -5.37545
rfingers 7.12502
rthumb 6.03178 -35.2696
lclavicle -1.25234e-014 -2.78299e-014
lhumerus -31.8793 31.6952 22.2955
lradius 44.6164
lwrist 2.65803
lhand -19.2094 1.46219
lfingers 7.12502
lthumb 7.10306 31.323
rfemur -0.239506 2.21365 24.9335
rtibia 27.8374
rfoot -16.8128 -21.4404
rtoes -8.80026
lfemur -28.4525 1.5306 -11.1855
ltibia 35.9204
lfoot -4.98573 3.2657
ltoes -8.93727
1105
root 2.05152 17.7677 20.0448 3.38582 5.41983 -5.04704
lowerback 11.4238 -0.306643 3.6015
upperback 2.38062 0.253068 4.93917
thorax -3.92427 0.109178 3.09977
lowerneck -24.7155 0.654607 6.95115
upperneck 25.91 1.02345 -9.17489
head 12.8437 -0.129387 -4.57637
rclavicle 1.39149e-014 7.95139e-016
rhumerus -35.895 -30.2475 -13.4198
rradius 33.8774
rwrist -6.41827
rhand -20.402 -5.40155
rfingers 7.12502
rthumb 5.95171 -35.298
lclavicle 1.39149e-014 7.95139e-016
lhumerus -31.8614 31.6862 22.4221
lradius 44.5263
lwrist 2.63398
lhand -19.2818 1.45822
lfingers 7.12502
lthumb 7.03317 31.3214
rfemur -0.443203 1.76322 24.9697
rtibia 28.6423
rfoot -16.7125 -21.5252
rtoes -9.42609
lfemur -28.4414 1.32104 -11.1562
ltibia 36.3421
lfoot -5.34851 3.56043
ltoes -9.36614
1106
root 2.05576 17.7664 20.1381 3.45314 5.51203 -5.11394
lowerback 11.4673 -0.33326 3.16755
upperback 2.39004 0.158121 4.72138
thorax -3.93627 0.0656988 3.12901
lowerneck -24.8322 0.68092 7.02442
upperneck 25.8913 0.898511 -8.77694
head 12.8439 -0.123954 -4.45326
rclavicle -8.94531e-015 -2.8625e-014
rhumerus -36.0759 -30.1395 -13.254
rradius 33.9671
rwrist -6.48685
rhand -20.4789 -5.40488
rfingers 7.12502
rthumb 5.87751 -35.3034
lclavicle -8.94531e-015 -2.8625e-014
lhumerus -31.7358 31.7917 22.601
lradius 44.3029
lwrist 2.46658
lhand -19.3059 1.32111
lfingers 7.12502
lthumb 7.00991 31.185
rfemur -0.701169 1.26578 25.0766
rtibia 29.5752
rfoot -16.5332 -21.591
rtoes -10.1036
lfemur -28.402 1.08414 -11.0364
ltibia 36.7243
lfoot -5.7021 3.80047
ltoes -9.7463
1107
root 2.06106 17.7662 20.2312 3.49328 5.61492 -5.25357
lowerback 11.5316 -0.350998 2.83715
upperback 2.42338 0.0883773 4.53474
thorax -3.93477 0.0338026 3.12934
lowerneck -25.0439 0.687178 7.04305
upperneck 25.9184 0.756581 -8.35956
head 12.8806 -0.129527 -4.32021
rclavicle -4.17448e-015 3.97569e-015
rhumerus -36.2674 -30.0753 -13.0449
rradius 34.0275
rwrist -6.50201
rhand -20.5248 -5.36759
rfingers 7.12502
rthumb 5.83314 -35.2673
lclavicle -4.17448e-015 3.97569e-015
lhumerus -31.4759 31.9521 22.8905
lradius 43.9711
lwrist 2.24283
lhand -19.3171 1.1297
lfingers 7.12502
lthumb 6.99909 30.994
rfemur -0.99513 0.746703 25.2451
rtibia 30.6135
rfoot -16.2888 -21.598
rtoes -10.798
lfemur -28.3156 0.850582 -10.8316
ltibia 37.0612
lfoot -6.06732 3.99669
ltoes -10.0889
